<svg width="184" height="40" viewBox="0 0 184 40" fill="none" xmlns="http://www.w3.org/2000/svg">
<path d="M36.4955 26.3389V13.6597C36.4951 12.3747 36.1578 11.1125 35.5175 9.99976C34.8773 8.88698 33.9563 7.9628 32.8475 7.32004L21.8983 0.980393C20.7885 0.338104 19.5298 0 18.2486 0C16.9674 0 15.7087 0.338104 14.5989 0.980393L3.64971 7.32004C2.54066 7.96272 1.6196 8.88683 0.978982 9.99957C0.338366 11.1123 0.000753246 12.3746 0 13.6597V26.3389C0.000396445 27.6241 0.337851 28.8865 0.978506 29.9993C1.61916 31.112 2.54042 32.0362 3.64971 32.6786L14.5989 39.0181C15.7084 39.6616 16.9672 40 18.2486 40C19.53 40 20.7888 39.6616 21.8983 39.0181L32.8475 32.6786C33.9567 32.0362 34.8777 31.112 35.5179 29.9991C36.1582 28.8863 36.4955 27.624 36.4955 26.3389Z" fill="url(#paint0_linear_625_899)"/>
<path d="M47.0319 26.3389V13.6597C47.0311 12.3746 46.6937 11.1123 46.0531 9.99957C45.4124 8.88683 44.4915 7.96272 43.3822 7.32004L32.4332 0.980393C31.3232 0.338104 30.0647 0 28.7834 0C27.5022 0 26.2436 0.338104 25.1337 0.980393L14.1808 7.32004C13.072 7.9628 12.1512 8.88698 11.5109 9.99976C10.8706 11.1125 10.5334 12.3747 10.533 13.6597V26.3389C10.533 27.624 10.8701 28.8863 11.5104 29.9991C12.1507 31.112 13.0718 32.0362 14.1808 32.6786L25.13 39.0181C26.2395 39.6616 27.4983 40 28.7797 40C30.0611 40 31.32 39.6616 32.4293 39.0181L43.3787 32.6786C44.4887 32.0366 45.4105 31.1128 46.0519 30C46.6933 28.8871 47.0311 27.6245 47.0319 26.3389Z" fill="url(#paint1_linear_625_899)"/>
<path fill-rule="evenodd" clip-rule="evenodd" d="M68.3233 13.7815C69.3478 13.3092 70.4681 13.0909 71.592 13.1447C73.9989 13.1447 78.0628 14.5742 78.0628 19.9084V28.0336H74.7664V20.651C74.7664 17.6374 73.6575 16.2265 71.2202 16.2265C68.1917 16.2265 66.7844 17.7178 66.7844 20.9109V28.0336H63.4816V20.651C63.4816 17.6374 62.3787 16.2265 59.9413 16.2265C56.9497 16.2265 55.5543 17.7178 55.5543 20.9109V28.0336H52.2578V13.5284H55.5543V14.8898C56.8693 13.7234 58.5676 13.1006 60.3132 13.1447C61.3606 13.1193 62.3985 13.3534 63.3369 13.8268C64.2756 14.3001 65.0864 14.9984 65.6997 15.8614C66.3994 14.9667 67.2985 14.2539 68.3233 13.7815ZM80.1001 20.5852C80.1001 16.3358 84.3342 13.1367 89.947 13.1367C95.5659 13.1367 99.7936 16.3358 99.7936 20.5852C99.7936 24.8345 95.6567 28.0336 89.947 28.0336C84.2374 28.0336 80.1001 24.8345 80.1001 20.5852ZM89.947 25.0216C93.7272 25.0216 96.4729 23.1565 96.4729 20.5852C96.4729 18.0138 93.7272 16.1426 89.947 16.1426C86.1665 16.1426 83.4208 18.0138 83.4208 20.5852C83.4208 23.1565 86.1665 25.0216 89.947 25.0216ZM111.916 13.1414C109.681 13.0689 107.499 13.8505 105.8 15.3325V13.5251H102.51V28.0336H105.8V21.3736C105.8 17.9569 107.673 16.2238 111.369 16.2238C114.708 16.2238 116.197 17.7031 116.197 21.0084V28.0336H119.487V20.606C119.487 15.8648 116.727 13.1414 111.916 13.1414ZM125.564 15.2417C127.519 13.8382 129.888 13.0996 132.31 13.1382C137.875 13.1382 141.916 16.2844 141.897 20.6189C141.897 24.2986 138.252 28.0996 132.161 28.0996C129.784 28.1396 127.459 27.4111 125.545 26.0263V32.7735H122.203V13.514H125.564V15.2417ZM138.518 20.631C138.518 18.0485 135.714 16.1693 131.853 16.1693V16.1571C127.992 16.1571 125.187 18.0485 125.187 20.631C125.187 23.2134 127.992 25.0867 131.853 25.0867C135.714 25.0867 138.518 23.2134 138.518 20.631ZM180.534 13.8139L174.677 23.6309H174.573L168.224 13.8139H164.307L172.742 26.8594L169.239 32.7735H172.7L184 13.8139H180.534ZM162.269 27.6578H159.037V25.9681C157.192 27.3473 154.949 28.0727 152.655 28.032C146.768 28.032 143.255 24.2481 143.255 20.585C143.255 16.2701 147.162 13.1381 152.529 13.1381C154.866 13.101 157.151 13.8362 159.037 15.2322V13.5122H162.269V27.6578ZM146.536 20.585C146.536 23.1559 149.237 25.0206 152.971 25.0206C156.699 25.0206 159.401 23.1559 159.401 20.585C159.401 18.0142 156.705 16.1434 152.971 16.1434C149.237 16.1434 146.536 18.0142 146.536 20.585Z" fill="white"/>
<defs>
<linearGradient id="paint0_linear_625_899" x1="9.1243" y1="35.856" x2="27.4656" y2="4.19642" gradientUnits="userSpaceOnUse">
<stop offset="0.1" stop-color="#9650FF"/>
<stop offset="1" stop-color="#00E6FF" stop-opacity="0"/>
</linearGradient>
<linearGradient id="paint1_linear_625_899" x1="19.6591" y1="35.856" x2="38.0005" y2="4.19642" gradientUnits="userSpaceOnUse">
<stop stop-color="#9650FF" stop-opacity="0"/>
<stop offset="0.9" stop-color="#00E6FF"/>
</linearGradient>
</defs>
</svg>
