<svg width="184" height="40" viewBox="0 0 184 40" fill="none" xmlns="http://www.w3.org/2000/svg">
<path d="M36.4955 26.3389V13.6597C36.4951 12.3747 36.1578 11.1125 35.5175 9.99976C34.8773 8.88698 33.9563 7.9628 32.8475 7.32004L21.8983 0.980393C20.7885 0.338104 19.5298 0 18.2486 0C16.9674 0 15.7087 0.338104 14.5989 0.980393L3.64971 7.32004C2.54066 7.96272 1.6196 8.88683 0.978982 9.99957C0.338366 11.1123 0.000753246 12.3746 0 13.6597V26.3389C0.000396445 27.6241 0.337851 28.8865 0.978506 29.9993C1.61916 31.112 2.54042 32.0362 3.64971 32.6786L14.5989 39.0181C15.7084 39.6616 16.9672 40 18.2486 40C19.53 40 20.7888 39.6616 21.8983 39.0181L32.8475 32.6786C33.9567 32.0362 34.8777 31.112 35.5179 29.9991C36.1582 28.8863 36.4955 27.624 36.4955 26.3389Z" fill="url(#paint0_linear)"/>
<path d="M47.0319 26.3389V13.6597C47.0311 12.3746 46.6937 11.1123 46.0531 9.99957C45.4124 8.88683 44.4915 7.96272 43.3822 7.32004L32.4332 0.980393C31.3231 0.338104 30.0646 0 28.7834 0C27.5022 0 26.2435 0.338104 25.1337 0.980393L14.1808 7.32004C13.072 7.9628 12.1512 8.88698 11.5109 9.99976C10.8706 11.1125 10.5333 12.3747 10.5329 13.6597V26.3389C10.5329 27.624 10.8701 28.8863 11.5104 29.9991C12.1507 31.112 13.0717 32.0362 14.1808 32.6786L25.13 39.0181C26.2395 39.6616 27.4983 40 28.7797 40C30.0611 40 31.32 39.6616 32.4292 39.0181L43.3786 32.6786C44.4887 32.0366 45.4104 31.1128 46.0519 30C46.6933 28.8871 47.0311 27.6245 47.0319 26.3389Z" fill="url(#paint1_linear)"/>
<path fill-rule="evenodd" clip-rule="evenodd" d="M68.3233 13.7811C69.3477 13.3088 70.4681 13.0905 71.592 13.1443C73.9988 13.1443 78.0628 14.5738 78.0628 19.908V28.0332H74.7663V20.6506C74.7663 17.637 73.6575 16.226 71.2201 16.226C68.1917 16.226 66.7843 17.7174 66.7843 20.9105V28.0332H63.4815V20.6506C63.4815 17.637 62.3786 16.226 59.9413 16.226C56.9497 16.226 55.5542 17.7174 55.5542 20.9105V28.0332H52.2578V13.528H55.5542V14.8894C56.8692 13.7229 58.5676 13.1002 60.3131 13.1443C61.3605 13.1189 62.3984 13.353 63.3368 13.8263C64.2756 14.2996 65.0863 14.998 65.6996 15.8609C66.3993 14.9663 67.2985 14.2534 68.3233 13.7811ZM80.1001 20.5847C80.1001 16.3354 84.3341 13.1363 89.947 13.1363C95.5658 13.1363 99.7935 16.3354 99.7935 20.5847C99.7935 24.8341 95.6566 28.0332 89.947 28.0332C84.2374 28.0332 80.1001 24.8341 80.1001 20.5847ZM89.947 25.0212C93.7271 25.0212 96.4729 23.1561 96.4729 20.5847C96.4729 18.0134 93.7271 16.1422 89.947 16.1422C86.1665 16.1422 83.4207 18.0134 83.4207 20.5847C83.4207 23.1561 86.1665 25.0212 89.947 25.0212ZM111.916 13.1409C109.68 13.0685 107.498 13.8501 105.8 15.3321V13.5247H102.51V28.0332H105.8V21.3731C105.8 17.9564 107.672 16.2233 111.369 16.2233C114.708 16.2233 116.197 17.7027 116.197 21.0079V28.0332H119.487V20.6056C119.487 15.8644 116.727 13.1409 111.916 13.1409ZM125.564 15.2413C127.519 13.8378 129.888 13.0991 132.31 13.1378C137.875 13.1378 141.915 16.284 141.897 20.6184C141.897 24.2982 138.252 28.0991 132.161 28.0991C129.784 28.1391 127.459 27.4106 125.545 26.0259V32.773H122.203V13.5136H125.564V15.2413ZM138.518 20.6305C138.518 18.0481 135.713 16.1688 131.852 16.1688V16.1567C127.992 16.1567 125.187 18.0481 125.187 20.6305C125.187 23.213 127.992 25.0862 131.852 25.0862C135.713 25.0862 138.518 23.213 138.518 20.6305ZM180.534 13.8135L174.676 23.6304H174.573L168.224 13.8135H164.307L172.742 26.859L169.239 32.7731H172.7L184 13.8135H180.534ZM162.269 27.6574H159.037V25.9676C157.192 27.3469 154.949 28.0723 152.655 28.0315C146.768 28.0315 143.255 24.2477 143.255 20.5846C143.255 16.2697 147.162 13.1376 152.529 13.1376C154.866 13.1005 157.151 13.8358 159.037 15.2317V13.5118H162.269V27.6574ZM146.536 20.5846C146.536 23.1554 149.237 25.0202 152.971 25.0202C156.699 25.0202 159.401 23.1554 159.401 20.5846C159.401 18.0138 156.705 16.143 152.971 16.143C149.237 16.143 146.536 18.0138 146.536 20.5846Z" fill="#23262F"/>
<defs>
<linearGradient id="paint0_linear" x1="9.1243" y1="35.856" x2="27.4656" y2="4.19642" gradientUnits="userSpaceOnUse">
<stop offset="0.1" stop-color="#9650FF"/>
<stop offset="1" stop-color="#00E6FF" stop-opacity="0"/>
</linearGradient>
<linearGradient id="paint1_linear" x1="19.6591" y1="35.856" x2="38.0005" y2="4.19642" gradientUnits="userSpaceOnUse">
<stop stop-color="#9650FF" stop-opacity="0"/>
<stop offset="0.9" stop-color="#00E6FF"/>
</linearGradient>
</defs>
</svg>
