<svg width="184" height="40" viewBox="0 0 184 40" fill="none" xmlns="http://www.w3.org/2000/svg">
<path d="M36.4955 26.3389V13.6597C36.4951 12.3747 36.1578 11.1125 35.5175 9.99976C34.8773 8.88698 33.9563 7.9628 32.8475 7.32004L21.8983 0.980393C20.7885 0.338104 19.5298 0 18.2486 0C16.9674 0 15.7087 0.338104 14.5989 0.980393L3.64971 7.32004C2.54066 7.96272 1.6196 8.88683 0.978982 9.99957C0.338366 11.1123 0.000753246 12.3746 0 13.6597V26.3389C0.000396445 27.6241 0.337851 28.8865 0.978506 29.9993C1.61916 31.112 2.54042 32.0362 3.64971 32.6786L14.5989 39.0181C15.7084 39.6616 16.9672 40 18.2486 40C19.53 40 20.7888 39.6616 21.8983 39.0181L32.8475 32.6786C33.9567 32.0362 34.8777 31.112 35.5179 29.9991C36.1582 28.8863 36.4955 27.624 36.4955 26.3389Z" fill="url(#paint0_linear_11_609)"/>
<path d="M47.0319 26.3389V13.6597C47.0311 12.3746 46.6937 11.1123 46.0531 9.99957C45.4124 8.88683 44.4915 7.96272 43.3822 7.32004L32.4332 0.980393C31.3232 0.338104 30.0647 0 28.7834 0C27.5022 0 26.2436 0.338104 25.1337 0.980393L14.1808 7.32004C13.072 7.9628 12.1512 8.88698 11.5109 9.99976C10.8706 11.1125 10.5334 12.3747 10.533 13.6597V26.3389C10.533 27.624 10.8701 28.8863 11.5104 29.9991C12.1507 31.112 13.0718 32.0362 14.1808 32.6786L25.13 39.0181C26.2395 39.6616 27.4983 40 28.7797 40C30.0611 40 31.32 39.6616 32.4293 39.0181L43.3787 32.6786C44.4887 32.0366 45.4105 31.1128 46.0519 30C46.6933 28.8871 47.0311 27.6245 47.0319 26.3389Z" fill="url(#paint1_linear_11_609)"/>
<path fill-rule="evenodd" clip-rule="evenodd" d="M68.3232 13.781C69.3476 13.3087 70.468 13.0904 71.5919 13.1442C73.9987 13.1442 78.0627 14.5737 78.0627 19.908V28.0331H74.7663V20.6505C74.7663 17.6369 73.6574 16.226 71.2201 16.226C68.1916 16.226 66.7842 17.7173 66.7842 20.9104V28.0331H63.4815V20.6505C63.4815 17.6369 62.3785 16.226 59.9412 16.226C56.9496 16.226 55.5541 17.7173 55.5541 20.9104V28.0331H52.2577V13.5279H55.5541V14.8893C56.8691 13.7229 58.5675 13.1001 60.3131 13.1442C61.3605 13.1188 62.3984 13.3529 63.3367 13.8263C64.2755 14.2996 65.0863 14.9979 65.6996 15.8609C66.3993 14.9662 67.2984 14.2534 68.3232 13.781ZM80.1 20.5847C80.1 16.3353 84.3341 13.1362 89.9469 13.1362C95.5657 13.1362 99.7934 16.3353 99.7934 20.5847C99.7934 24.834 95.6565 28.0331 89.9469 28.0331C84.2373 28.0331 80.1 24.834 80.1 20.5847ZM89.9469 25.0211C93.727 25.0211 96.4728 23.156 96.4728 20.5847C96.4728 18.0133 93.727 16.1422 89.9469 16.1422C86.1664 16.1422 83.4206 18.0133 83.4206 20.5847C83.4206 23.156 86.1664 25.0211 89.9469 25.0211ZM111.916 13.1409C109.68 13.0684 107.498 13.85 105.8 15.332V13.5246H102.51V28.0331H105.8V21.3731C105.8 17.9564 107.672 16.2233 111.369 16.2233C114.708 16.2233 116.197 17.7026 116.197 21.0079V28.0331H119.487V20.6055C119.487 15.8643 116.726 13.1409 111.916 13.1409ZM125.564 15.2412C127.519 13.8377 129.888 13.0991 132.31 13.1377C137.875 13.1377 141.915 16.284 141.897 20.6184C141.897 24.2981 138.252 28.0991 132.161 28.0991C129.784 28.1391 127.459 27.4106 125.545 26.0258V32.773H122.203V13.5135H125.564V15.2412ZM138.518 20.6305C138.518 18.048 135.713 16.1688 131.852 16.1688V16.1566C127.991 16.1566 125.187 18.048 125.187 20.6305C125.187 23.213 127.991 25.0862 131.852 25.0862C135.713 25.0862 138.518 23.213 138.518 20.6305ZM180.533 13.8134L174.676 23.6304H174.573L168.223 13.8134H164.307L172.742 26.8589L169.239 32.773H172.7L184 13.8134H180.533ZM162.269 27.6573H159.037V25.9676C157.192 27.3468 154.948 28.0722 152.655 28.0315C146.768 28.0315 143.255 24.2476 143.255 20.5845C143.255 16.2697 147.161 13.1376 152.529 13.1376C154.866 13.1005 157.151 13.8357 159.037 15.2317V13.5117H162.269V27.6573ZM146.535 20.5845C146.535 23.1554 149.237 25.0201 152.971 25.0201C156.699 25.0201 159.401 23.1554 159.401 20.5845C159.401 18.0137 156.705 16.1429 152.971 16.1429C149.237 16.1429 146.535 18.0137 146.535 20.5845Z" fill="#0A0032"/>
<defs>
<linearGradient id="paint0_linear_11_609" x1="9.1243" y1="35.856" x2="27.4656" y2="4.19642" gradientUnits="userSpaceOnUse">
<stop offset="0.1" stop-color="#9650FF"/>
<stop offset="1" stop-color="#00E6FF" stop-opacity="0"/>
</linearGradient>
<linearGradient id="paint1_linear_11_609" x1="19.6591" y1="35.856" x2="38.0005" y2="4.19642" gradientUnits="userSpaceOnUse">
<stop stop-color="#9650FF" stop-opacity="0"/>
<stop offset="0.9" stop-color="#00E6FF"/>
</linearGradient>
</defs>
</svg>
